<svg class="logo__item__inner" transform="translate(-150 0) scale(-1 1) rotate(0 0 0)">
        
<svg>
	<path fill="#069948" d="M83,74.6C104.9,61.4,83.4,53,63.7,52H47.2c-4.6,0-8.2,3.4-8.2,8v34.3c0,4.6,3.6,8.7,8.2,8.7H64v16.5   c0,4.6,3.8,8.5,8.3,8.5h11.1C61.6,110,56.5,90.6,83,74.6z" data-part-id="logo__item--logo_0__0"></path>
	<path fill="#1C4C5B" d="M131.8,52H115V34.8c0-4.6-3.8-8.8-8.3-8.8H72.3c-4.6,0-8.3,4.2-8.3,8.8v13.3c16-1.7,30.9,3.8,35.9,11.1   c0.6,0.9,1.4,2.9,1.6,4c0.3,2,0.3,3.8-0.9,5.5c-4.6,6.6-13.3,13.3-17.2,18.7c-6.7,9.5,10.9,24.7,30.6,35.9c0.6-1.1,1-2.4,1-3.8V103   h16.8c4.6,0,8.2-4.1,8.2-8.7V60C140,55.4,136.4,52,131.8,52z" data-part-id="logo__item--logo_0__1"></path>
	<path fill="#1C4C5B" d="M19.7,74.6c0-35.5,29-64.3,64.8-64.3c11.7,0,22.6,3.1,32,8.4C105.3,11,91.7,6.4,77,6.4   C38.8,6.4,7.9,37.1,7.9,75c0,37.9,31,68.6,69.1,68.6c17.3,0,33.1-6.3,45.2-16.7c-10.6,7.6-23.7,12-37.7,12   C48.7,138.9,19.7,110.1,19.7,74.6z" data-part-id="logo__item--logo_0__2" class="logo__part--active"></path>
	<path fill="#069948" d="M38.8,33.6c-23.3,24.1-23.2,62.2,0.1,85c9.5,9.3,21.4,14.5,33.7,16c-3.3-0.9-6.6-2.1-9.8-3.6   c-6-2.5-11.5-6.2-16.4-10.9c-2.8-2.8-5.3-5.8-7.4-9c-16.1-22.7-14.8-54,4.8-74.3C65.8,14,102.6,14,126,36.8   c3.8,3.7,6.9,7.8,9.5,12.1c-2.9-6.4-7-12.4-12.3-17.6C99.9,8.5,62,9.5,38.8,33.6z" data-part-id="logo__item--logo_0__3"></path>
</svg>

    </svg>